<svg version="1.1" xmlns="http://www.w3.org/2000/svg" viewBox="0 0 115.81172654405458 223.5173225901297" width="231.62345308810916" height="447.0346451802594">
  <!-- svg-source:excalidraw -->
  
  <defs>
    <style>
      @font-face {
        font-family: "Virgil";
        src: url("https://unpkg.com/@zsviczian/excalidraw@0.12.0-obsidian-8/dist/excalidraw-assets/Virgil.woff2");
      }
      @font-face {
        font-family: "Cascadia";
        src: url("https://unpkg.com/@zsviczian/excalidraw@0.12.0-obsidian-8/dist/excalidraw-assets/Cascadia.woff2");
      }
    </style>
  </defs>
  <rect x="0" y="0" width="115.81172654405458" height="223.5173225901297" fill="#ffffff"/><g transform="translate(55.92355168835718 26.849648461195812) rotate(0 6.112127382982791 -5.286164223120252)" stroke="none"><path fill="#000000" d="M -0.83,-1.11 Q -0.83,-1.11 -0.20,-1.85 0.43,-2.58 1.85,-4.44 3.26,-6.29 4.43,-7.74 5.60,-9.19 6.46,-10.26 7.31,-11.33 8.37,-12.77 9.44,-14.22 9.83,-14.73 10.22,-15.24 10.42,-15.43 10.62,-15.63 10.87,-15.77 11.11,-15.91 11.38,-15.99 11.64,-16.07 11.92,-16.08 12.20,-16.10 12.48,-16.04 12.75,-15.99 13.01,-15.87 13.26,-15.75 13.48,-15.58 13.70,-15.40 13.87,-15.18 14.04,-14.96 14.15,-14.70 14.26,-14.44 14.31,-14.17 14.35,-13.89 14.33,-13.61 14.31,-13.33 14.23,-13.07 14.14,-12.80 13.99,-12.56 13.84,-12.33 14.09,-10.60 14.33,-8.87 14.24,-7.55 14.15,-6.24 14.12,-5.11 14.09,-3.97 13.75,-0.47 13.42,3.03 13.44,3.24 13.46,3.45 13.41,3.66 13.37,3.87 13.25,4.05 13.14,4.23 12.98,4.36 12.82,4.50 12.62,4.58 12.42,4.66 12.21,4.66 12.00,4.67 11.79,4.62 11.59,4.56 11.41,4.44 11.24,4.32 11.11,4.15 10.98,3.98 10.92,3.77 10.85,3.57 10.85,3.36 10.86,3.15 10.93,2.95 10.99,2.74 11.12,2.58 11.25,2.41 11.43,2.29 11.61,2.17 11.81,2.12 12.02,2.06 12.23,2.08 12.44,2.09 12.64,2.17 12.84,2.25 13.00,2.39 13.16,2.53 13.27,2.71 13.37,2.89 13.42,3.10 13.46,3.31 13.44,3.52 13.41,3.73 13.32,3.92 13.23,4.12 13.08,4.27 12.94,4.42 12.75,4.52 12.56,4.62 12.35,4.65 12.14,4.68 11.93,4.65 11.72,4.61 11.53,4.51 11.35,4.41 11.20,4.25 11.06,4.10 10.97,3.90 10.88,3.71 10.88,3.71 10.88,3.71 9.99,0.87 9.10,-1.96 9.13,-3.05 9.15,-4.15 9.21,-5.40 9.27,-6.64 9.37,-7.78 9.48,-8.93 9.69,-10.91 9.90,-12.89 10.06,-14.06 10.22,-15.24 10.42,-15.43 10.62,-15.63 10.87,-15.77 11.11,-15.91 11.38,-15.99 11.64,-16.07 11.92,-16.08 12.20,-16.10 12.48,-16.04 12.75,-15.99 13.01,-15.87 13.26,-15.75 13.48,-15.58 13.70,-15.40 13.87,-15.18 14.04,-14.96 14.15,-14.70 14.26,-14.44 14.31,-14.17 14.35,-13.89 14.33,-13.61 14.31,-13.33 14.23,-13.07 14.14,-12.80 13.99,-12.56 13.85,-12.33 13.64,-12.27 13.44,-12.21 12.69,-11.27 11.94,-10.32 11.25,-9.48 10.57,-8.64 9.67,-7.58 8.77,-6.52 7.60,-5.19 6.43,-3.86 5.35,-2.55 4.28,-1.24 3.44,-0.47 2.60,0.30 1.72,0.71 0.83,1.11 0.69,1.20 0.54,1.28 0.38,1.33 0.22,1.38 0.05,1.38 -0.11,1.39 -0.27,1.36 -0.44,1.32 -0.59,1.25 -0.74,1.18 -0.87,1.07 -1.00,0.96 -1.11,0.83 -1.21,0.69 -1.27,0.54 -1.34,0.38 -1.37,0.22 -1.39,0.05 -1.38,-0.11 -1.37,-0.28 -1.31,-0.44 -1.26,-0.60 -1.17,-0.74 -1.08,-0.88 -0.96,-1.00 -0.83,-1.11 -0.83,-1.11 L -0.83,-1.11 Z"/></g><g transform="translate(87.6405370270787 11.321541055780074) rotate(0 -4.460201063257699 8.920402126515413)" stroke="none"><path fill="#000000" d="M -0.34,1.38 Q -0.34,1.38 -1.53,1.36 -2.72,1.33 -3.75,1.79 -4.79,2.25 -5.93,3.57 -7.07,4.89 -5.48,6.37 -3.90,7.86 -2.69,8.58 -1.48,9.29 -0.52,10.33 0.43,11.38 0.84,12.89 1.24,14.40 0.65,15.98 0.07,17.57 -1.00,18.53 -2.08,19.49 -3.26,19.98 -4.44,20.48 -5.77,20.75 -7.09,21.03 -8.66,21.04 -10.23,21.04 -11.46,20.73 -12.69,20.42 -13.30,19.12 -13.92,17.83 -13.48,16.75 -13.04,15.67 -12.12,14.66 -11.19,13.64 -9.83,12.35 -8.48,11.05 -6.22,9.31 -3.96,7.56 -2.42,6.23 -0.89,4.89 -0.06,3.99 0.76,3.08 0.10,0.81 -0.54,-1.46 -0.35,-1.38 -0.15,-1.30 0.00,-1.16 0.17,-1.03 0.28,-0.85 0.39,-0.66 0.43,-0.46 0.48,-0.25 0.46,-0.04 0.44,0.16 0.35,0.36 0.26,0.55 0.12,0.70 -0.02,0.86 -0.21,0.96 -0.39,1.06 -0.60,1.10 -0.81,1.13 -1.02,1.10 -1.23,1.07 -1.42,0.97 -1.61,0.87 -1.75,0.72 -1.90,0.56 -1.99,0.37 -2.08,0.18 -2.11,-0.02 -2.13,-0.23 -2.09,-0.44 -2.04,-0.65 -1.93,-0.83 -1.83,-1.02 -1.66,-1.15 -1.50,-1.29 -1.31,-1.37 -1.11,-1.45 -0.90,-1.46 -0.69,-1.48 -0.48,-1.42 -0.28,-1.37 -0.10,-1.25 0.07,-1.13 0.20,-0.96 0.33,-0.79 0.40,-0.59 0.47,-0.39 0.47,-0.18 0.47,0.02 0.40,0.23 0.33,0.43 0.21,0.60 0.08,0.77 -0.09,0.89 -0.26,1.01 -0.47,1.07 -0.67,1.12 -0.88,1.11 -1.09,1.10 -1.09,1.10 -1.09,1.10 0.72,-0.67 2.54,-2.45 3.69,-1.46 4.83,-0.46 5.14,1.07 5.44,2.60 4.88,4.29 4.33,5.98 3.24,7.20 2.15,8.41 0.50,9.82 -1.13,11.24 -3.21,12.82 -5.29,14.41 -6.55,15.60 -7.81,16.78 -9.03,16.69 -10.25,16.59 -8.18,16.37 -6.10,16.15 -5.01,15.72 -3.91,15.30 -3.88,14.22 -3.85,13.15 -4.92,12.52 -5.99,11.88 -7.48,11.09 -8.98,10.29 -9.96,9.41 -10.95,8.53 -11.24,6.43 -11.54,4.33 -11.07,3.28 -10.60,2.23 -9.67,1.12 -8.75,0.00 -7.75,-0.73 -6.75,-1.48 -5.58,-1.97 -4.41,-2.45 -3.12,-2.46 -1.83,-2.47 -0.74,-1.93 0.34,-1.38 0.50,-1.32 0.66,-1.25 0.80,-1.16 0.94,-1.06 1.06,-0.93 1.17,-0.80 1.25,-0.65 1.33,-0.50 1.37,-0.33 1.41,-0.16 1.41,0.00 1.41,0.17 1.37,0.34 1.33,0.50 1.24,0.66 1.16,0.81 1.05,0.94 0.94,1.06 0.79,1.16 0.65,1.26 0.49,1.32 0.33,1.38 0.16,1.40 -0.00,1.42 -0.17,1.40 -0.34,1.38 -0.34,1.38 L -0.34,1.38 Z"/></g><g transform="translate(52.61969904890702 38.74351796321636) rotate(0 21.14465689248101 -1.3215410557800453)" stroke="none"><path fill="#000000" d="M 0.10,-1.38 Q 0.10,-1.38 2.67,-1.33 5.25,-1.29 7.51,-1.35 9.76,-1.41 12.30,-1.65 14.84,-1.89 18.55,-2.42 22.27,-2.96 25.55,-3.49 28.83,-4.01 31.83,-4.55 34.82,-5.08 38.25,-4.85 41.68,-4.62 41.89,-4.58 42.10,-4.54 42.28,-4.44 42.47,-4.34 42.62,-4.19 42.76,-4.03 42.85,-3.84 42.94,-3.65 42.96,-3.43 42.98,-3.22 42.93,-3.02 42.89,-2.81 42.78,-2.63 42.67,-2.45 42.50,-2.31 42.34,-2.17 42.14,-2.10 41.94,-2.02 41.73,-2.01 41.52,-2.00 41.31,-2.06 41.11,-2.11 40.94,-2.24 40.76,-2.36 40.63,-2.53 40.51,-2.70 40.44,-2.90 40.37,-3.10 40.37,-3.31 40.38,-3.52 40.44,-3.73 40.51,-3.93 40.64,-4.09 40.77,-4.26 40.95,-4.38 41.13,-4.50 41.33,-4.55 41.54,-4.61 41.75,-4.60 41.96,-4.58 42.16,-4.50 42.35,-4.42 42.52,-4.28 42.68,-4.15 42.78,-3.96 42.89,-3.78 42.94,-3.57 42.98,-3.36 42.96,-3.15 42.93,-2.94 42.84,-2.75 42.75,-2.56 42.60,-2.41 42.46,-2.25 42.27,-2.15 42.08,-2.06 41.87,-2.02 41.66,-1.99 41.66,-1.99 41.66,-1.99 38.59,-1.36 35.53,-0.73 32.48,-0.29 29.44,0.15 26.10,0.59 22.76,1.03 18.94,1.42 15.12,1.81 12.45,1.96 9.78,2.11 7.39,2.08 5.00,2.05 2.45,1.71 -0.10,1.38 -0.26,1.34 -0.42,1.31 -0.58,1.24 -0.73,1.17 -0.86,1.06 -0.99,0.96 -1.09,0.83 -1.19,0.69 -1.26,0.54 -1.32,0.39 -1.35,0.22 -1.38,0.06 -1.36,-0.10 -1.35,-0.26 -1.30,-0.42 -1.25,-0.58 -1.16,-0.72 -1.07,-0.86 -0.95,-0.98 -0.83,-1.10 -0.69,-1.18 -0.55,-1.26 -0.39,-1.31 -0.23,-1.36 -0.06,-1.37 0.10,-1.38 0.10,-1.38 L 0.10,-1.38 Z"/></g><g transform="translate(53.9412401046871 54.2716253686321) rotate(0 7.433668438762851 9.415980022432962)" stroke="none"><path fill="#000000" d="M -0.32,-1.63 Q -0.32,-1.63 2.02,-2.23 4.37,-2.82 6.56,-2.96 8.76,-3.10 10.27,-2.95 11.79,-2.80 13.05,-2.28 14.31,-1.77 15.10,-0.84 15.89,0.07 15.97,1.31 16.04,2.56 15.44,3.93 14.84,5.30 13.31,6.97 11.78,8.64 10.69,9.66 9.60,10.68 8.57,10.20 7.55,9.72 9.17,10.12 10.80,10.53 12.91,11.91 15.02,13.29 15.03,14.47 15.04,15.65 14.21,16.89 13.38,18.14 12.30,19.13 11.22,20.12 9.71,20.93 8.21,21.74 6.38,22.11 4.56,22.48 2.69,21.68 0.82,20.89 0.62,20.83 0.42,20.76 0.24,20.63 0.07,20.51 -0.04,20.33 -0.16,20.16 -0.22,19.95 -0.27,19.75 -0.27,19.54 -0.26,19.32 -0.18,19.13 -0.10,18.93 0.02,18.77 0.16,18.60 0.34,18.49 0.52,18.38 0.73,18.33 0.94,18.28 1.15,18.31 1.36,18.33 1.55,18.41 1.75,18.50 1.90,18.65 2.06,18.79 2.16,18.98 2.26,19.16 2.30,19.37 2.33,19.58 2.30,19.79 2.27,20.00 2.17,20.19 2.07,20.38 1.92,20.53 1.77,20.68 1.57,20.77 1.38,20.86 1.17,20.88 0.96,20.91 0.75,20.86 0.54,20.82 0.36,20.71 0.18,20.60 0.04,20.44 -0.09,20.28 -0.17,20.09 -0.25,19.89 -0.26,19.68 -0.28,19.46 -0.22,19.26 -0.17,19.05 -0.05,18.88 0.06,18.70 0.23,18.57 0.39,18.44 0.59,18.37 0.80,18.30 1.01,18.30 1.22,18.30 1.22,18.30 1.22,18.30 2.50,17.99 3.78,17.69 4.92,17.52 6.06,17.35 7.06,16.90 8.07,16.44 9.03,15.54 10.00,14.65 8.89,14.41 7.79,14.18 6.19,13.27 4.59,12.36 5.66,9.97 6.72,7.57 7.74,6.64 8.75,5.70 9.95,4.56 11.15,3.42 11.23,2.24 11.31,1.05 10.13,0.91 8.95,0.77 7.03,0.85 5.12,0.92 2.72,1.28 0.32,1.63 0.12,1.65 -0.07,1.67 -0.27,1.63 -0.47,1.60 -0.65,1.52 -0.84,1.44 -1.00,1.32 -1.16,1.20 -1.28,1.04 -1.41,0.88 -1.50,0.70 -1.58,0.52 -1.62,0.32 -1.66,0.12 -1.65,-0.07 -1.64,-0.27 -1.59,-0.46 -1.53,-0.66 -1.43,-0.83 -1.33,-1.00 -1.19,-1.15 -1.05,-1.29 -0.88,-1.40 -0.71,-1.51 -0.51,-1.57 -0.32,-1.63 -0.32,-1.63 L -0.32,-1.63 Z"/></g><g transform="translate(82.35437280395846 56.584322216247216) rotate(0 0 7.598861070735381)" stroke="none"><path fill="#000000" d="M 1.07,1.21 Q 1.07,1.21 -1.29,3.49 -3.67,5.78 -4.71,7.36 -5.75,8.94 -5.26,10.63 -4.76,12.33 -2.88,12.50 -0.99,12.67 0.47,12.15 1.94,11.64 3.20,10.77 4.46,9.91 5.24,8.93 6.01,7.95 5.85,6.24 5.69,4.53 4.28,3.52 2.88,2.50 1.18,2.94 -0.51,3.37 -1.94,4.08 -3.36,4.78 -4.85,5.26 -6.34,5.73 -6.53,5.81 -6.73,5.89 -6.94,5.90 -7.16,5.91 -7.36,5.85 -7.57,5.79 -7.74,5.67 -7.92,5.55 -8.04,5.38 -8.17,5.21 -8.24,5.01 -8.30,4.81 -8.30,4.60 -8.30,4.38 -8.23,4.18 -8.16,3.98 -8.04,3.81 -7.91,3.64 -7.73,3.53 -7.55,3.41 -7.35,3.35 -7.14,3.30 -6.93,3.31 -6.72,3.32 -6.52,3.40 -6.32,3.48 -6.16,3.62 -6.00,3.76 -5.89,3.94 -5.78,4.12 -5.74,4.33 -5.70,4.54 -5.72,4.75 -5.74,4.96 -5.83,5.15 -5.92,5.35 -6.07,5.50 -6.22,5.65 -6.41,5.75 -6.60,5.85 -6.80,5.88 -7.01,5.92 -7.22,5.88 -7.43,5.84 -7.62,5.74 -7.81,5.64 -7.95,5.49 -8.10,5.33 -8.19,5.14 -8.27,4.95 -8.30,4.74 -8.32,4.52 -8.27,4.32 -8.22,4.11 -8.11,3.93 -8.00,3.75 -7.84,3.61 -7.68,3.47 -7.68,3.47 -7.68,3.47 -6.51,2.37 -5.34,1.26 -3.71,0.25 -2.08,-0.75 0.25,-1.59 2.59,-2.43 3.93,-2.13 5.26,-1.83 6.83,-0.81 8.40,0.20 9.37,1.79 10.35,3.38 10.58,5.28 10.82,7.18 10.13,8.96 9.44,10.74 8.16,12.13 6.88,13.52 5.08,14.65 3.29,15.79 1.16,16.40 -0.96,17.01 -3.00,16.85 -5.03,16.69 -6.63,15.58 -8.24,14.47 -8.97,12.70 -9.71,10.94 -9.39,8.93 -9.08,6.92 -7.64,4.94 -6.20,2.95 -3.64,0.86 -1.07,-1.21 -0.91,-1.32 -0.75,-1.43 -0.56,-1.50 -0.38,-1.57 -0.19,-1.59 0.00,-1.62 0.19,-1.59 0.38,-1.57 0.57,-1.50 0.75,-1.43 0.91,-1.32 1.07,-1.21 1.20,-1.06 1.33,-0.92 1.42,-0.74 1.51,-0.57 1.56,-0.38 1.60,-0.19 1.60,0.00 1.60,0.19 1.56,0.38 1.51,0.57 1.42,0.74 1.33,0.92 1.20,1.06 1.07,1.21 1.07,1.21 L 1.07,1.21 Z"/></g><g transform="translate(20.572328446240505 37.42197690743632) rotate(0 -2.6430821115601333 5.286164223120252)" stroke="none"><path fill="#000000" d="M 0,1.76 Q 0,1.76 -2.18,1.98 -4.36,2.20 -5.60,2.48 -6.84,2.75 -7.30,3.76 -7.75,4.76 -5.89,4.68 -4.03,4.59 -2.90,3.56 -1.77,2.52 -1.64,2.13 -1.51,1.73 -1.36,1.49 -1.21,1.25 -1.00,1.05 -0.80,0.86 -0.55,0.71 -0.31,0.57 -0.03,0.49 0.23,0.41 0.51,0.40 0.80,0.38 1.08,0.44 1.36,0.49 1.61,0.61 1.87,0.73 2.09,0.91 2.31,1.09 2.48,1.32 2.66,1.55 2.77,1.81 2.88,2.07 2.93,2.35 2.98,2.63 2.95,2.91 2.93,3.20 2.84,3.47 2.76,3.74 3.49,5.55 4.23,7.37 4.60,7.99 4.98,8.60 5.19,8.63 5.40,8.66 5.59,8.75 5.78,8.84 5.94,8.99 6.09,9.14 6.18,9.32 6.28,9.51 6.31,9.72 6.35,9.93 6.31,10.14 6.27,10.35 6.17,10.54 6.07,10.73 5.91,10.87 5.76,11.01 5.56,11.10 5.37,11.19 5.16,11.21 4.94,11.23 4.74,11.18 4.53,11.13 4.35,11.02 4.17,10.91 4.03,10.74 3.90,10.58 3.82,10.38 3.75,10.18 3.74,9.97 3.73,9.76 3.79,9.55 3.85,9.35 3.97,9.18 4.09,9.00 4.26,8.87 4.43,8.75 4.63,8.68 4.84,8.62 5.05,8.62 5.26,8.62 5.46,8.69 5.66,8.76 5.83,8.90 6.00,9.03 6.11,9.20 6.23,9.38 6.29,9.59 6.34,9.79 6.33,10.00 6.31,10.22 6.23,10.41 6.15,10.61 6.01,10.77 5.87,10.93 5.69,11.04 5.50,11.14 5.29,11.19 5.09,11.23 5.09,11.23 5.09,11.23 2.42,10.21 -0.24,9.19 -0.86,6.79 -1.48,4.39 -1.49,3.06 -1.51,1.73 -1.36,1.49 -1.21,1.25 -1.00,1.05 -0.80,0.86 -0.55,0.71 -0.31,0.57 -0.03,0.49 0.23,0.41 0.51,0.40 0.80,0.38 1.08,0.44 1.35,0.49 1.61,0.61 1.87,0.73 2.09,0.91 2.31,1.09 2.48,1.32 2.66,1.55 2.77,1.81 2.88,2.07 2.93,2.35 2.98,2.63 2.95,2.91 2.93,3.20 2.84,3.47 2.76,3.74 2.27,4.68 1.79,5.62 0.93,6.55 0.07,7.49 -1.03,8.27 -2.13,9.05 -3.92,9.75 -5.71,10.45 -7.20,10.37 -8.69,10.29 -9.65,9.65 -10.61,9.01 -11.35,7.77 -12.08,6.52 -12.16,4.93 -12.23,3.35 -11.48,1.80 -10.72,0.25 -9.30,-0.68 -7.88,-1.61 -6.13,-1.91 -4.37,-2.20 -2.18,-1.98 0,-1.76 0.21,-1.73 0.42,-1.71 0.62,-1.63 0.81,-1.55 0.99,-1.43 1.16,-1.31 1.30,-1.15 1.44,-1.00 1.54,-0.81 1.64,-0.62 1.69,-0.41 1.74,-0.21 1.74,0.00 1.74,0.21 1.69,0.41 1.64,0.62 1.54,0.81 1.44,1.00 1.30,1.15 1.16,1.31 0.99,1.43 0.81,1.55 0.61,1.63 0.42,1.71 0.21,1.73 -0.00,1.76 -0.00,1.76 L 0,1.76 Z"/></g><g transform="translate(25.197722141470734 25.197722141470734) rotate(0 4.955778959175234 15.032529509498218)" stroke="none"><path fill="#000000" d="M 1.23,-1.12 Q 1.23,-1.12 3.43,1.05 5.64,3.23 7.45,6.59 9.25,9.94 9.94,12.26 10.63,14.59 10.20,18.08 9.76,21.57 8.75,24.08 7.73,26.60 5.22,28.72 2.71,30.84 2.51,30.89 2.30,30.94 2.09,30.92 1.88,30.90 1.68,30.82 1.49,30.73 1.33,30.59 1.18,30.45 1.07,30.26 0.97,30.07 0.93,29.87 0.89,29.66 0.92,29.45 0.96,29.24 1.05,29.05 1.15,28.86 1.30,28.71 1.45,28.56 1.64,28.47 1.83,28.37 2.04,28.35 2.26,28.32 2.46,28.36 2.67,28.41 2.86,28.51 3.04,28.62 3.18,28.78 3.32,28.94 3.40,29.13 3.48,29.33 3.50,29.54 3.51,29.75 3.46,29.96 3.41,30.16 3.29,30.34 3.18,30.52 3.01,30.65 2.84,30.78 2.64,30.85 2.44,30.93 2.23,30.93 2.02,30.93 1.81,30.87 1.61,30.80 1.44,30.68 1.27,30.55 1.15,30.38 1.02,30.21 0.96,30.00 0.90,29.80 0.91,29.59 0.92,29.37 0.99,29.17 1.07,28.98 1.21,28.81 1.34,28.65 1.52,28.53 1.70,28.42 1.70,28.42 1.70,28.42 2.71,26.64 3.73,24.87 4.66,22.86 5.59,20.86 6.16,18.20 6.73,15.54 6.21,13.66 5.69,11.78 4.20,8.83 2.71,5.88 0.74,3.50 -1.23,1.12 -1.34,0.96 -1.46,0.80 -1.54,0.61 -1.61,0.42 -1.64,0.22 -1.67,0.02 -1.65,-0.17 -1.63,-0.37 -1.56,-0.56 -1.49,-0.75 -1.38,-0.91 -1.27,-1.08 -1.12,-1.22 -0.97,-1.35 -0.79,-1.45 -0.61,-1.55 -0.42,-1.60 -0.22,-1.65 -0.02,-1.65 0.17,-1.66 0.36,-1.61 0.56,-1.57 0.74,-1.48 0.92,-1.39 1.07,-1.26 1.23,-1.12 1.23,-1.12 L 1.23,-1.12 Z"/></g><g transform="translate(15.286164223120238 160.98606562287222) rotate(0 2.973467375505166 13.215410557800624)" stroke="none"><path fill="#000000" d="M 1.42,0.16 Q 1.42,0.16 1.35,2.65 1.27,5.15 1.09,7.42 0.90,9.68 0.73,11.25 0.55,12.82 0.51,14.36 0.46,15.89 0.35,17.38 0.23,18.86 0.19,20.37 0.14,21.87 0.13,23.00 0.11,24.12 0.11,24.98 0.10,25.84 0.07,26.09 0.03,26.34 -0.05,26.57 -0.14,26.81 -0.29,27.01 -0.43,27.22 -0.62,27.38 -0.81,27.54 -1.04,27.66 -1.26,27.77 -1.51,27.83 -1.75,27.88 -2.00,27.88 -2.25,27.88 -2.50,27.81 -2.74,27.75 -2.96,27.63 -3.18,27.51 -3.36,27.34 -3.55,27.17 -3.69,26.96 -3.83,26.75 -3.91,26.52 -4.00,26.28 -4.03,26.03 -4.05,25.78 -3.82,24.72 -3.58,23.67 -3.22,22.44 -2.86,21.21 -2.39,20.05 -1.92,18.89 -1.02,17.71 -0.11,16.52 0.77,15.83 1.66,15.14 2.86,14.94 4.07,14.74 5.32,15.24 6.57,15.74 7.74,17.17 8.90,18.60 9.31,20.00 9.72,21.39 9.37,22.83 9.02,24.26 7.79,25.37 6.55,26.48 5.03,26.91 3.51,27.34 0.86,26.88 -1.79,26.41 -2.00,26.38 -2.21,26.35 -2.39,26.25 -2.58,26.15 -2.73,26.00 -2.88,25.85 -2.97,25.65 -3.06,25.46 -3.08,25.25 -3.11,25.04 -3.07,24.83 -3.02,24.62 -2.91,24.44 -2.81,24.26 -2.64,24.12 -2.48,23.98 -2.29,23.90 -2.09,23.82 -1.88,23.81 -1.67,23.79 -1.46,23.85 -1.26,23.90 -1.08,24.02 -0.90,24.14 -0.77,24.31 -0.64,24.47 -0.57,24.68 -0.50,24.88 -0.50,25.09 -0.50,25.30 -0.57,25.50 -0.63,25.71 -0.76,25.88 -0.89,26.05 -1.06,26.17 -1.24,26.29 -1.44,26.35 -1.64,26.40 -1.86,26.39 -2.07,26.38 -2.27,26.31 -2.46,26.23 -2.63,26.09 -2.79,25.96 -2.90,25.78 -3.01,25.60 -3.06,25.39 -3.11,25.18 -3.09,24.97 -3.07,24.76 -2.98,24.57 -2.89,24.37 -2.75,24.22 -2.60,24.06 -2.41,23.96 -2.23,23.86 -2.02,23.82 -1.81,23.79 -1.81,23.79 -1.81,23.79 0.33,23.27 2.47,22.76 3.87,21.91 5.27,21.06 4.22,20.15 3.17,19.23 2.18,20.84 1.18,22.44 0.64,24.14 0.10,25.84 0.07,26.09 0.03,26.34 -0.05,26.57 -0.14,26.81 -0.29,27.01 -0.43,27.22 -0.62,27.38 -0.81,27.54 -1.04,27.66 -1.26,27.77 -1.51,27.83 -1.75,27.88 -2.00,27.88 -2.25,27.88 -2.50,27.81 -2.74,27.75 -2.96,27.63 -3.18,27.51 -3.36,27.34 -3.55,27.17 -3.69,26.96 -3.83,26.75 -3.91,26.52 -4.00,26.28 -4.03,26.03 -4.05,25.78 -4.03,24.91 -4.01,24.04 -3.98,22.89 -3.95,21.73 -3.88,20.11 -3.81,18.50 -3.67,17.10 -3.53,15.69 -3.42,14.02 -3.30,12.35 -3.11,10.84 -2.91,9.32 -2.66,7.02 -2.41,4.72 -1.92,2.28 -1.42,-0.16 -1.38,-0.33 -1.34,-0.50 -1.26,-0.65 -1.18,-0.81 -1.07,-0.94 -0.96,-1.07 -0.81,-1.17 -0.67,-1.27 -0.51,-1.33 -0.35,-1.39 -0.18,-1.41 -0.00,-1.43 0.16,-1.41 0.33,-1.39 0.49,-1.33 0.66,-1.27 0.80,-1.18 0.94,-1.08 1.06,-0.95 1.17,-0.82 1.26,-0.67 1.34,-0.51 1.38,-0.35 1.42,-0.18 1.42,-0.00 1.42,0.16 1.42,0.16 L 1.42,0.16 Z"/></g><g transform="translate(22.554640029910587 151.73527823241176) rotate(0 4.62539369523023 20.814271628536005)" stroke="none"><path fill="#000000" d="M 1.51,-0.50 Q 1.51,-0.50 2.06,0.56 2.61,1.63 3.63,2.88 4.64,4.13 6.20,6.29 7.76,8.45 9.08,10.92 10.39,13.38 11.13,16.55 11.87,19.72 11.62,23.74 11.37,27.76 10.66,30.76 9.94,33.76 8.87,36.02 7.80,38.27 5.88,39.96 3.96,41.65 3.80,41.79 3.64,41.94 3.45,42.02 3.26,42.11 3.04,42.13 2.83,42.15 2.63,42.10 2.42,42.05 2.24,41.94 2.06,41.83 1.92,41.66 1.79,41.50 1.71,41.30 1.64,41.10 1.63,40.89 1.62,40.68 1.68,40.47 1.74,40.27 1.86,40.10 1.98,39.92 2.15,39.79 2.32,39.67 2.53,39.60 2.73,39.54 2.94,39.54 3.15,39.55 3.35,39.62 3.55,39.69 3.72,39.82 3.89,39.95 4.01,40.13 4.12,40.30 4.18,40.51 4.23,40.72 4.22,40.93 4.20,41.14 4.12,41.34 4.04,41.53 3.90,41.69 3.76,41.85 3.57,41.96 3.39,42.06 3.18,42.11 2.97,42.15 2.76,42.12 2.55,42.10 2.36,42.01 2.17,41.91 2.02,41.77 1.87,41.62 1.77,41.43 1.67,41.24 1.64,41.03 1.61,40.82 1.65,40.61 1.68,40.40 1.79,40.21 1.89,40.03 1.89,40.03 1.89,40.03 2.76,38.15 3.62,36.28 4.48,34.44 5.34,32.59 6.03,29.98 6.71,27.36 7.08,23.98 7.46,20.60 6.97,17.98 6.49,15.35 5.38,13.12 4.27,10.89 2.79,8.72 1.32,6.54 0.11,4.73 -1.09,2.92 -1.30,1.71 -1.51,0.50 -1.55,0.31 -1.59,0.12 -1.58,-0.06 -1.57,-0.25 -1.52,-0.44 -1.46,-0.62 -1.37,-0.79 -1.27,-0.95 -1.14,-1.09 -1.00,-1.23 -0.84,-1.33 -0.68,-1.44 -0.50,-1.50 -0.31,-1.56 -0.12,-1.57 0.06,-1.59 0.25,-1.56 0.44,-1.53 0.62,-1.45 0.79,-1.38 0.95,-1.26 1.10,-1.15 1.22,-1.00 1.34,-0.85 1.43,-0.67 1.51,-0.50 1.51,-0.50 L 1.51,-0.50 Z"/></g><g transform="translate(56.25393695230221 166.93300037388252) rotate(0 5.781742119037773 -4.79058632720276)" stroke="none"><path fill="#000000" d="M -0.91,-1.07 Q -0.91,-1.07 0.29,-2.35 1.49,-3.63 2.46,-4.65 3.42,-5.68 4.36,-6.85 5.30,-8.02 6.17,-9.18 7.03,-10.34 7.76,-11.39 8.49,-12.44 9.00,-13.34 9.51,-14.23 9.65,-14.43 9.80,-14.63 9.99,-14.79 10.18,-14.94 10.41,-15.05 10.63,-15.16 10.87,-15.21 11.11,-15.26 11.36,-15.26 11.61,-15.25 11.85,-15.18 12.09,-15.11 12.30,-14.99 12.52,-14.87 12.70,-14.70 12.88,-14.53 13.01,-14.32 13.14,-14.11 13.22,-13.88 13.31,-13.64 13.33,-13.40 13.35,-13.15 13.31,-12.90 13.27,-12.66 13.18,-12.43 13.08,-12.20 13.26,-10.70 13.44,-9.19 13.36,-7.71 13.28,-6.22 13.17,-4.65 13.06,-3.08 12.94,-1.37 12.83,0.33 12.42,1.95 12.01,3.57 12.07,3.77 12.12,3.97 12.11,4.19 12.10,4.40 12.03,4.60 11.95,4.79 11.81,4.96 11.68,5.12 11.49,5.23 11.31,5.34 11.11,5.39 10.90,5.44 10.69,5.41 10.48,5.39 10.28,5.30 10.09,5.22 9.93,5.07 9.78,4.93 9.68,4.74 9.58,4.55 9.54,4.34 9.51,4.13 9.54,3.92 9.57,3.71 9.67,3.52 9.77,3.34 9.92,3.19 10.08,3.04 10.27,2.95 10.46,2.86 10.67,2.84 10.88,2.81 11.09,2.86 11.30,2.90 11.48,3.01 11.66,3.12 11.80,3.28 11.94,3.44 12.02,3.64 12.10,3.83 12.11,4.05 12.13,4.26 12.07,4.46 12.02,4.67 11.90,4.85 11.78,5.02 11.61,5.15 11.44,5.28 11.24,5.35 11.04,5.42 10.83,5.42 10.62,5.42 10.41,5.36 10.21,5.29 10.04,5.16 9.87,5.03 9.75,4.86 9.63,4.68 9.63,4.68 9.63,4.68 8.87,2.30 8.10,-0.08 8.29,-1.78 8.48,-3.48 8.64,-5.00 8.80,-6.53 8.91,-7.86 9.02,-9.20 9.03,-10.29 9.04,-11.38 9.28,-12.81 9.51,-14.23 9.65,-14.43 9.80,-14.63 9.99,-14.79 10.18,-14.94 10.41,-15.05 10.63,-15.16 10.87,-15.21 11.11,-15.26 11.36,-15.26 11.61,-15.25 11.85,-15.18 12.09,-15.11 12.30,-14.99 12.52,-14.87 12.70,-14.70 12.88,-14.53 13.01,-14.32 13.14,-14.11 13.22,-13.88 13.30,-13.64 13.33,-13.40 13.35,-13.15 13.31,-12.90 13.27,-12.66 13.18,-12.43 13.08,-12.20 12.39,-11.18 11.71,-10.15 10.91,-9.06 10.11,-7.98 9.16,-6.78 8.21,-5.58 7.13,-4.33 6.05,-3.09 4.93,-2.01 3.82,-0.92 2.36,0.07 0.91,1.07 0.77,1.16 0.63,1.25 0.47,1.31 0.31,1.37 0.14,1.39 -0.02,1.40 -0.19,1.38 -0.35,1.36 -0.51,1.30 -0.67,1.23 -0.81,1.13 -0.95,1.03 -1.06,0.91 -1.17,0.78 -1.24,0.62 -1.32,0.47 -1.36,0.31 -1.40,0.14 -1.39,-0.02 -1.39,-0.19 -1.35,-0.35 -1.30,-0.52 -1.22,-0.67 -1.14,-0.81 -1.03,-0.94 -0.91,-1.07 -0.91,-1.07 L -0.91,-1.07 Z"/></g><g transform="translate(87.6405370270787 153.71758981608187) rotate(0 -1.8171189516975659 9.250787390460445)" stroke="none"><path fill="#000000" d="M 1.01,1.14 Q 1.01,1.14 -0.45,2.73 -1.93,4.31 -2.77,5.53 -3.62,6.75 -2.09,6.86 -0.57,6.97 0.79,7.52 2.15,8.06 3.74,9.34 5.33,10.61 5.72,12.27 6.12,13.93 5.28,15.78 4.45,17.63 3.11,18.48 1.77,19.33 0.39,19.85 -0.98,20.37 -2.40,20.60 -3.81,20.83 -5.79,20.17 -7.76,19.51 -7.97,19.45 -8.17,19.39 -8.35,19.27 -8.52,19.15 -8.65,18.98 -8.77,18.80 -8.84,18.60 -8.90,18.40 -8.90,18.19 -8.90,17.98 -8.83,17.77 -8.76,17.57 -8.63,17.41 -8.50,17.24 -8.32,17.12 -8.14,17.01 -7.93,16.95 -7.73,16.90 -7.52,16.91 -7.31,16.93 -7.11,17.01 -6.91,17.09 -6.75,17.23 -6.59,17.37 -6.49,17.55 -6.38,17.74 -6.34,17.94 -6.29,18.15 -6.32,18.36 -6.34,18.57 -6.44,18.77 -6.53,18.96 -6.68,19.11 -6.82,19.26 -7.01,19.36 -7.20,19.46 -7.41,19.49 -7.62,19.52 -7.83,19.48 -8.04,19.44 -8.23,19.34 -8.41,19.24 -8.56,19.08 -8.70,18.93 -8.79,18.73 -8.88,18.54 -8.90,18.33 -8.92,18.12 -8.87,17.91 -8.82,17.70 -8.71,17.52 -8.59,17.34 -8.43,17.21 -8.27,17.07 -8.07,16.99 -7.87,16.92 -7.66,16.91 -7.45,16.90 -7.45,16.90 -7.45,16.90 -6.03,16.27 -4.62,15.63 -2.70,15.16 -0.78,14.69 0.17,13.85 1.12,13.01 0.18,12.46 -0.75,11.91 -2.37,11.20 -4.00,10.48 -5.00,9.91 -6.01,9.35 -6.74,8.19 -7.47,7.03 -6.89,5.16 -6.32,3.29 -5.42,2.33 -4.52,1.38 -2.76,0.11 -1.01,-1.14 -0.86,-1.25 -0.70,-1.35 -0.53,-1.42 -0.36,-1.48 -0.18,-1.50 0.00,-1.53 0.18,-1.50 0.36,-1.48 0.54,-1.41 0.71,-1.35 0.86,-1.24 1.01,-1.14 1.13,-1.00 1.26,-0.86 1.34,-0.70 1.43,-0.53 1.47,-0.36 1.51,-0.18 1.51,0.00 1.51,0.18 1.47,0.36 1.43,0.54 1.34,0.70 1.25,0.87 1.13,1.01 1.01,1.14 1.01,1.14 L 1.01,1.14 Z"/></g><g transform="translate(83.6759138597385 152.72643402424683) rotate(0 8.094438966652888 -1.1563484238075574)" stroke="none"><path fill="#000000" d="M -0.28,-1.70 Q -0.28,-1.70 1.95,-2.30 4.20,-2.91 5.84,-3.19 7.47,-3.48 8.84,-3.71 10.20,-3.95 12.86,-3.76 15.53,-3.57 15.74,-3.55 15.95,-3.54 16.15,-3.45 16.35,-3.37 16.50,-3.23 16.66,-3.09 16.77,-2.91 16.88,-2.72 16.92,-2.51 16.96,-2.31 16.93,-2.10 16.91,-1.88 16.81,-1.69 16.72,-1.50 16.57,-1.35 16.42,-1.20 16.23,-1.10 16.04,-1.01 15.83,-0.98 15.62,-0.95 15.41,-0.98 15.21,-1.02 15.02,-1.13 14.83,-1.23 14.69,-1.39 14.55,-1.54 14.46,-1.74 14.38,-1.93 14.36,-2.14 14.34,-2.35 14.39,-2.56 14.44,-2.77 14.55,-2.95 14.66,-3.13 14.83,-3.26 14.99,-3.40 15.19,-3.47 15.39,-3.55 15.60,-3.55 15.81,-3.56 16.02,-3.50 16.22,-3.44 16.39,-3.32 16.57,-3.20 16.69,-3.02 16.82,-2.85 16.88,-2.65 16.95,-2.45 16.94,-2.24 16.94,-2.02 16.87,-1.82 16.80,-1.62 16.66,-1.46 16.53,-1.29 16.36,-1.17 16.18,-1.06 15.97,-1.00 15.77,-0.95 15.77,-0.95 15.77,-0.95 13.32,-0.18 10.88,0.59 9.53,0.76 8.17,0.94 6.54,1.16 4.91,1.39 2.60,1.54 0.28,1.70 0.07,1.71 -0.13,1.72 -0.33,1.68 -0.54,1.64 -0.72,1.55 -0.91,1.46 -1.08,1.33 -1.24,1.20 -1.36,1.03 -1.49,0.87 -1.57,0.67 -1.65,0.48 -1.69,0.28 -1.72,0.07 -1.71,-0.13 -1.69,-0.33 -1.63,-0.53 -1.56,-0.73 -1.45,-0.91 -1.34,-1.08 -1.19,-1.23 -1.04,-1.37 -0.86,-1.48 -0.68,-1.58 -0.48,-1.64 -0.28,-1.70 -0.28,-1.70 L -0.28,-1.70 Z"/></g><g transform="translate(51.29815799312698 180.80918145957315) rotate(0 27.2567842754638 -0.3303852639450042)" stroke="none"><path fill="#000000" d="M 0.17,-1.58 Q 0.17,-1.58 1.90,-1.53 3.62,-1.47 5.97,-1.27 8.33,-1.07 10.63,-0.93 12.94,-0.80 14.56,-0.79 16.18,-0.78 19.39,-1.01 22.61,-1.25 24.93,-1.56 27.25,-1.87 30.24,-2.31 33.22,-2.76 36.98,-3.25 40.74,-3.75 43.59,-4.05 46.44,-4.35 48.05,-4.47 49.67,-4.60 51.87,-4.10 54.07,-3.61 54.28,-3.58 54.49,-3.55 54.68,-3.46 54.87,-3.37 55.03,-3.22 55.18,-3.07 55.27,-2.88 55.37,-2.69 55.40,-2.48 55.43,-2.27 55.39,-2.06 55.35,-1.85 55.25,-1.67 55.15,-1.48 54.99,-1.34 54.83,-1.19 54.64,-1.11 54.45,-1.02 54.23,-1.00 54.02,-0.98 53.82,-1.03 53.61,-1.08 53.43,-1.20 53.25,-1.31 53.11,-1.47 52.98,-1.64 52.90,-1.84 52.83,-2.04 52.82,-2.25 52.81,-2.46 52.88,-2.66 52.94,-2.87 53.06,-3.04 53.18,-3.21 53.35,-3.34 53.52,-3.47 53.73,-3.53 53.93,-3.59 54.14,-3.59 54.35,-3.59 54.55,-3.51 54.75,-3.44 54.92,-3.31 55.09,-3.18 55.20,-3.00 55.32,-2.82 55.37,-2.62 55.43,-2.41 55.41,-2.20 55.39,-1.99 55.31,-1.79 55.23,-1.60 55.09,-1.44 54.95,-1.28 54.76,-1.17 54.58,-1.06 54.37,-1.02 54.16,-0.98 54.16,-0.98 54.16,-0.98 52.11,-0.32 50.05,0.34 48.50,0.46 46.95,0.58 44.14,0.86 41.34,1.14 37.61,1.57 33.87,1.99 30.85,2.36 27.82,2.74 25.38,3.02 22.94,3.30 19.44,3.56 15.93,3.82 14.24,3.65 12.55,3.48 10.21,3.20 7.87,2.91 5.54,2.57 3.21,2.23 1.51,1.91 -0.17,1.58 -0.36,1.54 -0.55,1.49 -0.72,1.41 -0.89,1.32 -1.03,1.19 -1.18,1.07 -1.29,0.91 -1.40,0.75 -1.47,0.57 -1.54,0.39 -1.57,0.20 -1.59,0.01 -1.57,-0.17 -1.55,-0.36 -1.48,-0.54 -1.42,-0.72 -1.31,-0.88 -1.20,-1.04 -1.06,-1.17 -0.91,-1.30 -0.75,-1.39 -0.58,-1.48 -0.39,-1.53 -0.20,-1.58 -0.01,-1.58 0.17,-1.58 0.17,-1.58 L 0.17,-1.58 Z"/></g><g transform="translate(68.8085769822128 191.7118951697587) rotate(0 -4.129815799312681 10.737521078213007)" stroke="none"><path fill="#000000" d="M 1.11,0.84 Q 1.11,0.84 0.11,2.64 -0.88,4.43 -1.72,5.75 -2.56,7.07 -3.26,8.36 -3.96,9.65 -4.65,10.84 -5.34,12.02 -5.58,13.64 -5.82,15.26 -5.47,16.64 -5.13,18.02 -3.77,17.69 -2.42,17.35 -3.72,16.21 -5.02,15.07 -5.23,15.09 -5.44,15.12 -5.65,15.07 -5.86,15.03 -6.04,14.92 -6.22,14.81 -6.36,14.65 -6.50,14.48 -6.58,14.29 -6.65,14.09 -6.67,13.88 -6.68,13.66 -6.62,13.46 -6.57,13.25 -6.45,13.08 -6.33,12.90 -6.16,12.77 -5.99,12.65 -5.79,12.58 -5.59,12.51 -5.37,12.51 -5.16,12.51 -4.96,12.58 -4.76,12.64 -4.59,12.77 -4.42,12.90 -4.30,13.08 -4.18,13.25 -4.12,13.46 -4.07,13.66 -4.08,13.87 -4.09,14.08 -4.17,14.28 -4.25,14.48 -4.38,14.64 -4.52,14.80 -4.70,14.91 -4.88,15.02 -5.09,15.07 -5.30,15.12 -5.51,15.09 -5.72,15.07 -5.91,14.98 -6.11,14.89 -6.26,14.75 -6.42,14.60 -6.52,14.41 -6.62,14.23 -6.65,14.02 -6.69,13.81 -6.65,13.60 -6.62,13.39 -6.52,13.20 -6.42,13.01 -6.26,12.86 -6.11,12.72 -5.92,12.63 -5.73,12.54 -5.73,12.54 -5.73,12.54 -2.81,12.65 0.11,12.76 1.02,13.96 1.94,15.16 2.11,16.72 2.28,18.28 1.73,19.54 1.17,20.80 0.23,21.65 -0.70,22.51 -1.76,22.97 -2.82,23.43 -4.50,23.38 -6.18,23.32 -7.27,22.54 -8.36,21.77 -9.01,20.71 -9.66,19.65 -10.02,18.45 -10.38,17.24 -10.43,16.11 -10.48,14.98 -10.29,13.47 -10.11,11.96 -9.59,10.84 -9.08,9.72 -8.37,8.63 -7.65,7.54 -6.82,6.16 -5.98,4.78 -5.01,3.40 -4.05,2.02 -2.58,0.58 -1.11,-0.84 -0.99,-0.97 -0.87,-1.09 -0.73,-1.17 -0.58,-1.26 -0.42,-1.32 -0.26,-1.37 -0.10,-1.38 0.06,-1.39 0.23,-1.36 0.40,-1.34 0.55,-1.27 0.70,-1.20 0.84,-1.10 0.97,-1.00 1.08,-0.86 1.18,-0.73 1.25,-0.58 1.33,-0.43 1.36,-0.26 1.39,-0.10 1.38,0.06 1.37,0.23 1.33,0.39 1.28,0.55 1.19,0.70 1.11,0.84 1.11,0.84 L 1.11,0.84 Z"/></g><g transform="translate(86.31899597129865 194.68536254526384) rotate(0 -4.295008431285211 9.415980022432933)" stroke="none"><path fill="#000000" d="M 0.61,1.40 Q 0.61,1.40 -1.49,2.53 -3.59,3.66 -4.89,4.66 -6.19,5.67 -7.14,6.71 -8.10,7.75 -8.82,8.78 -9.55,9.82 -9.86,11.63 -10.16,13.45 -8.97,14.60 -7.77,15.75 -6.15,15.56 -4.52,15.37 -3.27,14.78 -2.01,14.20 -0.92,13.17 0.16,12.15 0.42,10.26 0.68,8.38 -0.29,6.82 -1.27,5.26 -3.01,4.96 -4.76,4.65 -6.14,4.38 -7.52,4.10 -7.73,4.14 -7.94,4.18 -8.15,4.14 -8.36,4.11 -8.54,4.01 -8.73,3.91 -8.88,3.76 -9.03,3.61 -9.12,3.42 -9.21,3.23 -9.23,3.01 -9.26,2.80 -9.22,2.60 -9.17,2.39 -9.06,2.20 -8.96,2.02 -8.80,1.88 -8.64,1.74 -8.44,1.66 -8.24,1.58 -8.03,1.57 -7.82,1.55 -7.61,1.61 -7.41,1.66 -7.23,1.78 -7.05,1.90 -6.92,2.07 -6.79,2.24 -6.72,2.44 -6.65,2.64 -6.65,2.85 -6.65,3.06 -6.72,3.26 -6.78,3.47 -6.91,3.64 -7.04,3.81 -7.21,3.93 -7.39,4.05 -7.59,4.11 -7.79,4.17 -8.01,4.16 -8.22,4.15 -8.42,4.07 -8.61,3.99 -8.78,3.86 -8.94,3.72 -9.05,3.54 -9.16,3.36 -9.21,3.15 -9.26,2.94 -9.24,2.73 -9.22,2.52 -9.13,2.33 -9.04,2.13 -8.90,1.98 -8.75,1.82 -8.57,1.72 -8.38,1.62 -8.38,1.62 -8.38,1.62 -6.51,0.51 -4.65,-0.59 -2.83,-0.45 -1.02,-0.32 0.90,0.79 2.83,1.91 4.03,3.70 5.24,5.49 5.56,6.93 5.88,8.37 5.70,10.58 5.51,12.79 4.53,14.37 3.55,15.94 1.79,17.38 0.04,18.82 -1.82,19.57 -3.69,20.33 -5.64,20.50 -7.59,20.68 -9.21,20.07 -10.82,19.47 -12.04,18.27 -13.25,17.06 -13.95,15.24 -14.64,13.41 -14.47,11.85 -14.29,10.30 -13.66,8.79 -13.03,7.28 -12.05,6.04 -11.07,4.79 -9.80,3.59 -8.54,2.39 -6.84,1.26 -5.14,0.13 -2.87,-0.63 -0.61,-1.40 -0.43,-1.45 -0.25,-1.50 -0.07,-1.51 0.11,-1.52 0.29,-1.49 0.47,-1.45 0.64,-1.37 0.80,-1.29 0.95,-1.18 1.09,-1.06 1.20,-0.92 1.32,-0.77 1.39,-0.60 1.46,-0.43 1.49,-0.25 1.52,-0.07 1.51,0.11 1.50,0.29 1.44,0.47 1.38,0.64 1.29,0.80 1.19,0.95 1.06,1.08 0.92,1.21 0.76,1.31 0.61,1.40 0.61,1.40 L 0.61,1.40 Z"/></g></svg>